<?xml version="1.0" encoding="UTF-8"?>
<svg viewBox="0 0 1920 25" version="1.1" xmlns="http://www.w3.org/2000/svg" xmlns:xlink="http://www.w3.org/1999/xlink">
    <title>Light</title>
    <g id="Light" stroke="none" stroke-width="1" fill="none" fill-rule="evenodd">
        <rect id="Bar" fill="#E3E1E2" x="0" y="0" width="1920" height="25"></rect>
        <path d="M59,12.4994209 C59,16.0884633 56.0884633,18.9988419 52.4994209,18.9988419 C48.9115367,18.9988419 46,16.0884633 46,12.4994209 C46,8.91037862 48.9115367,6 52.4994209,6 C56.0884633,6 59,8.91037862 59,12.4994209" id="Green" fill-opacity="0.8" fill="#28CA41"></path>
        <path d="M40,12.4994209 C40,16.0884633 37.0884633,18.9988419 33.4994209,18.9988419 C29.9115367,18.9988419 27,16.0884633 27,12.4994209 C27,8.91037862 29.9115367,6 33.4994209,6 C37.0884633,6 40,8.91037862 40,12.4994209" id="Yellow" fill-opacity="0.8" fill="#FFBD2F"></path>
        <path d="M21,12.4994209 C21,16.0884633 18.0884633,18.9988419 14.4994209,18.9988419 C10.9115367,18.9988419 8,16.0884633 8,12.4994209 C8,8.91037862 10.9115367,6 14.4994209,6 C18.0884633,6 21,8.91037862 21,12.4994209" id="Red" fill-opacity="0.8" fill="#FF554F"></path>
    </g>
</svg>